<svg width="80" height="80" viewBox="0 0 80 80" fill="none" xmlns="http://www.w3.org/2000/svg">
<path d="M60.5741 8.72524C78.0527 19.0651 84.1947 41.3952 74.4629 59.2194C64.731 77.0437 42.6257 83.951 24.4769 74.8388C6.32811 65.7265 -1.33637 43.8722 7.14549 25.4203C15.6274 6.96851 37.2048 -1.44402 55.9378 6.3974" fill="white"/>
<path d="M60.5741 8.72524C78.0527 19.0651 84.1947 41.3952 74.4629 59.2194C64.731 77.0437 42.6257 83.951 24.4769 74.8388C6.32811 65.7265 -1.33637 43.8722 7.14549 25.4203C15.6274 6.96851 37.2048 -1.44402 55.9378 6.3974" stroke="#0D052C" stroke-width="0.362592" stroke-linecap="round" stroke-linejoin="round"/>
<circle cx="41.3303" cy="41.327" r="35.0892" fill="#A6EF67" stroke="#0D052C" stroke-width="0.362592" stroke-linecap="round" stroke-linejoin="round"/>
<circle cx="41.33" cy="41.3267" r="26.5538" fill="white" stroke="#0D052C" stroke-width="0.362592" stroke-linecap="round" stroke-linejoin="round"/>
<circle cx="41.3301" cy="41.3268" r="16.2223" fill="white" stroke="#0D052C" stroke-width="0.362592" stroke-linecap="round" stroke-linejoin="round"/>
<circle cx="41.33" cy="41.3268" r="7.9335" fill="white" stroke="#0D052C" stroke-width="0.362592" stroke-linecap="round" stroke-linejoin="round"/>
<path d="M53.6584 24.1377C56.6954 26.215 59.155 29.0297 60.8063 32.3178" stroke="#0D052C" stroke-width="0.362592" stroke-linecap="round" stroke-linejoin="round"/>
<path d="M44.5839 20.6011C47.087 20.9612 49.5068 21.7608 51.7318 22.9628" stroke="#0D052C" stroke-width="0.362592" stroke-linecap="round" stroke-linejoin="round"/>
<path d="M33.549 62.1179C28.9192 60.2861 25.0599 56.9184 22.618 52.5793" stroke="#0D052C" stroke-width="0.362592" stroke-linecap="round" stroke-linejoin="round"/>
<path d="M41.468 63.6189C39.7107 63.6198 37.9599 63.4071 36.2539 62.9856" stroke="#0D052C" stroke-width="0.362592" stroke-linecap="round" stroke-linejoin="round"/>
<path d="M40.9121 38.5615L42.2271 44.0923" stroke="#0D052C" stroke-width="0.362592" stroke-linecap="round" stroke-linejoin="round"/>
<path d="M42.2682 39.1755L43.1723 42.9803" stroke="#0D052C" stroke-width="0.362592" stroke-linecap="round" stroke-linejoin="round"/>
<path d="M39.9091 39.4343L40.8736 43.4784" stroke="#0D052C" stroke-width="0.362592" stroke-linecap="round" stroke-linejoin="round"/>
<path d="M43.8977 39.9153L39.0414 42.48" stroke="#0D052C" stroke-width="0.362592" stroke-linecap="round" stroke-linejoin="round"/>
<path d="M42.0194 39.5769L39.561 40.875" stroke="#0D052C" stroke-width="0.362592" stroke-linecap="round" stroke-linejoin="round"/>
<path d="M43.8517 41.2712L41.0912 42.7289" stroke="#0D052C" stroke-width="0.362592" stroke-linecap="round" stroke-linejoin="round"/>
<path d="M41.3301 41.327L20.2756 20.0115V20.009" stroke="#0D052C" stroke-width="0.362592" stroke-linecap="round" stroke-linejoin="round"/>
<path d="M10.1423 9.6386L6.06921 5.47363" stroke="#0D052C" stroke-width="0.362592" stroke-linecap="round" stroke-linejoin="round"/>
<path d="M20.2756 9.58338V20.0091L10.1424 9.63898V0.518594C10.141 0.447023 10.1823 0.381502 10.2476 0.352039C10.3128 0.322576 10.3894 0.334845 10.4421 0.383227L20.0121 8.9984C20.1807 9.14587 20.2769 9.35937 20.2756 9.58338Z" fill="white" stroke="#0D052C" stroke-width="0.362592" stroke-linecap="round" stroke-linejoin="round"/>
<path d="M20.2782 20.009H10.1014C9.92986 20.0082 9.76626 19.9365 9.64942 19.8108L0.413002 9.89273C0.371217 9.84933 0.359483 9.78513 0.383215 9.72975C0.406948 9.67437 0.461533 9.63859 0.52178 9.63892H10.1425L20.2782 20.009Z" fill="white" stroke="#0D052C" stroke-width="0.362592" stroke-linecap="round" stroke-linejoin="round"/>
<path d="M13.36 10.1731V12.9288" stroke="#0D052C" stroke-width="0.362592" stroke-linecap="round" stroke-linejoin="round"/>
<path d="M13.36 4.8938V9.57365" stroke="#0D052C" stroke-width="0.362592" stroke-linecap="round" stroke-linejoin="round"/>
<path d="M15.2962 6.97974V14.9036" stroke="#0D052C" stroke-width="0.362592" stroke-linecap="round" stroke-linejoin="round"/>
<path d="M17.1985 8.90161V16.8254" stroke="#0D052C" stroke-width="0.362592" stroke-linecap="round" stroke-linejoin="round"/>
<path d="M13.3598 12.9287H6.06934" stroke="#0D052C" stroke-width="0.362592" stroke-linecap="round" stroke-linejoin="round"/>
<path d="M15.2092 14.9038H7.9187" stroke="#0D052C" stroke-width="0.362592" stroke-linecap="round" stroke-linejoin="round"/>
<path d="M17.1986 16.8255H9.91052" stroke="#0D052C" stroke-width="0.362592" stroke-linecap="round" stroke-linejoin="round"/>
</svg>
