<svg width="72" height="83" viewBox="0 0 72 83" fill="none" xmlns="http://www.w3.org/2000/svg">
<path d="M42.4147 73.811C40.8724 72.2711 39.6974 70.0891 39.6974 70.0891C38.5341 78.5611 35.9281 81.7973 35.4874 82.2948C35.4713 82.3132 35.448 82.3237 35.4235 82.3237C35.399 82.3237 35.3757 82.3132 35.3595 82.2948C32.3247 78.9472 31.8745 68.6345 31.8745 68.6345C31.2112 70.4066 29.9461 72.4796 29.5054 73.195C29.472 73.2464 29.4133 73.2755 29.3522 73.2711C29.2911 73.2666 29.2373 73.2293 29.2117 73.1737C25.0254 63.9768 28.4085 56.6681 29.3135 54.9931C29.9437 55.1068 30.6236 55.1992 31.3462 55.275C30.953 56.8742 30.1096 61.141 31.3462 64.5406C31.3462 64.5406 32.436 62.9936 33.5282 62.1715C33.5282 62.1715 34.2081 67.0827 35.5964 69.4471C35.5964 69.4471 37.3472 64.9008 37.8921 62.6264C38.2076 63.5707 38.668 64.4603 39.2567 65.2632C39.2567 65.2632 41.3084 61.8446 40.0219 55.249C40.7682 55.1708 41.4695 55.0666 42.1139 54.9434C45.7007 63.946 43.2297 72.2047 42.7109 73.7399C42.6961 73.8026 42.6473 73.8516 42.5847 73.8666C42.5221 73.8816 42.4564 73.8601 42.4147 73.811Z" fill="#A6EF67" stroke="#0D052C" stroke-width="0.355367" stroke-linecap="round" stroke-linejoin="round"/>
<path d="M39.2423 65.2677C38.6527 64.4619 38.1923 63.5691 37.8777 62.6214C37.3328 64.8958 35.5821 69.4421 35.5821 69.4421C34.1938 67.073 33.5138 62.1666 33.5138 62.1666C32.4217 62.9839 31.3319 64.5357 31.3319 64.5357C30.0999 61.136 30.9433 56.8692 31.3319 55.2701C32.7426 55.4111 34.1596 55.4799 35.5773 55.4762C37.0557 55.4777 38.5331 55.3986 40.0028 55.2393C41.294 61.8491 39.2423 65.2677 39.2423 65.2677Z" fill="white" stroke="#0D052C" stroke-width="0.355367" stroke-linecap="round" stroke-linejoin="round"/>
<path d="M37.1222 75.2064C37.3685 74.3123 37.5514 73.4018 37.6695 72.4819" stroke="#0D052C" stroke-width="0.165838" stroke-linecap="round" stroke-linejoin="round"/>
<path d="M36.5465 76.7582C36.6876 76.4838 36.8064 76.1986 36.9019 75.9053" stroke="#0D052C" stroke-width="0.165838" stroke-linecap="round" stroke-linejoin="round"/>
<path d="M46.3713 49.5634V52.6291C46.3713 53.6525 44.6963 54.4604 42.1069 54.9484C41.4625 55.0716 40.7612 55.1854 40.015 55.2541C38.5452 55.4134 37.0678 55.4925 35.5894 55.491C34.1692 55.4926 32.7498 55.4214 31.3369 55.2777C30.6261 55.2019 29.9344 55.1095 29.3042 54.9958C26.5702 54.5102 24.8029 53.6857 24.8029 52.6267V49.5303C28.3742 50.3085 32.0172 50.7111 35.6724 50.7314C39.2694 50.7116 42.8547 50.3202 46.3713 49.5634Z" fill="white" stroke="#0D052C" stroke-width="0.355367" stroke-linecap="round" stroke-linejoin="round"/>
<path d="M51.6805 40.461C51.5573 42.6311 51.3843 44.4885 51.2422 45.8626C51.0821 47.3551 50.0309 48.6005 48.5864 49.0088C47.9657 49.1865 47.2289 49.376 46.3831 49.5608C42.8623 50.3205 39.2719 50.712 35.67 50.7288C32.0147 50.7109 28.3715 50.3083 24.8005 49.5276C24.0187 49.3523 23.334 49.1746 22.7512 49.0088C21.3065 48.6014 20.2556 47.3553 20.0978 45.8626C19.9533 44.5027 19.7851 42.6311 19.6619 40.461C19.3729 35.4124 19.3586 28.7434 20.5527 23.0575C20.6972 22.3752 20.8559 21.7118 21.0265 21.0627C22.0604 17.2653 23.6644 13.6468 25.7837 10.3306C29.027 10.7828 32.2982 11.0045 35.5729 10.9939C38.9642 11.0079 42.3518 10.7703 45.7079 10.2832C47.7611 13.499 49.3155 17.0071 50.3182 20.6884C50.5362 21.4749 50.7257 22.2946 50.8916 23.1357C52.0027 28.7931 51.9624 35.4337 51.6805 40.461Z" fill="white" stroke="#0D052C" stroke-width="0.355367" stroke-linecap="round" stroke-linejoin="round"/>
<path d="M20.5526 23.0576C19.3681 28.7435 19.3681 35.4078 19.6547 40.4564H14.3953C14.0123 40.4571 13.646 40.2995 13.3831 40.0209C13.1202 39.7423 12.9841 39.3675 13.007 38.9852C13.6846 28.3715 20.5526 23.0576 20.5526 23.0576Z" fill="#A6EF67" stroke="#0D052C" stroke-width="0.355367" stroke-linecap="round" stroke-linejoin="round"/>
<path d="M41.2137 4.6638C42.9106 6.36994 44.4197 8.25309 45.715 10.281C42.3589 10.7681 38.9712 11.0056 35.58 10.9917C32.3053 11.0023 29.0341 10.7806 25.7908 10.3284C29.008 5.32715 32.5996 2.41077 34.4333 1.12671C35.1736 0.607908 36.1561 0.595685 36.909 1.09591C37.9925 1.82188 39.0218 2.62554 39.9889 3.50056" fill="#A6EF67"/>
<path d="M41.2137 4.6638C42.9106 6.36994 44.4197 8.25309 45.715 10.281C42.3589 10.7681 38.9712 11.0056 35.58 10.9917C32.3053 11.0023 29.0341 10.7806 25.7908 10.3284C29.008 5.32715 32.5996 2.41077 34.4333 1.12671C35.1736 0.607908 36.1561 0.595685 36.909 1.09591C37.9925 1.82188 39.0218 2.62554 39.9889 3.50056" stroke="#0D052C" stroke-width="0.355367" stroke-linecap="round" stroke-linejoin="round"/>
<path d="M38.7616 4.74902C39.6255 5.43838 40.4445 6.18222 41.2136 6.97599" stroke="#0D052C" stroke-width="0.355367" stroke-linecap="round" stroke-linejoin="round"/>
<path d="M51.6804 40.4612C51.9718 35.434 52.0121 28.7933 50.901 23.1335L50.9152 23.0601C50.9152 23.0601 57.7999 28.3858 58.4632 39.0303C58.4827 39.4006 58.3491 39.7626 58.0937 40.0314C57.8383 40.3003 57.4836 40.4523 57.1128 40.4517L51.6804 40.4612Z" fill="#A6EF67" stroke="#0D052C" stroke-width="0.355367" stroke-linecap="round" stroke-linejoin="round"/>
<path d="M55.3598 33.8042C55.4569 34.0838 55.547 34.3752 55.6323 34.6737" stroke="#0D052C" stroke-width="0.355367" stroke-linecap="round" stroke-linejoin="round"/>
<path d="M53.7512 30.5039C54.2369 31.2553 54.6555 32.0481 55.0021 32.873" stroke="#0D052C" stroke-width="0.355367" stroke-linecap="round" stroke-linejoin="round"/>
<ellipse cx="35.6723" cy="49.5275" rx="3.08933" ry="8.74678" fill="#A6EF67" stroke="#0D052C" stroke-width="0.355367" stroke-linecap="round" stroke-linejoin="round"/>
<path d="M36.0892 42.2852C36.5334 43.0546 36.8427 43.8943 37.0037 44.768" stroke="#0D052C" stroke-width="0.142147" stroke-linecap="round" stroke-linejoin="round"/>
<circle cx="35.722" cy="27.2416" r="7.74938" fill="white" stroke="#0D052C" stroke-width="0.355367" stroke-linecap="round" stroke-linejoin="round"/>
<path d="M33.4028 26.7295L34.8812 29.3876" stroke="#0D052C" stroke-width="0.355367" stroke-linecap="round" stroke-linejoin="round"/>
<path d="M34.5067 24.9858L37.0156 29.4966" stroke="#0D052C" stroke-width="0.355367" stroke-linecap="round" stroke-linejoin="round"/>
<path d="M36.9327 25.6206L37.7619 27.1084" stroke="#0D052C" stroke-width="0.355367" stroke-linecap="round" stroke-linejoin="round"/>
<path d="M42.3557 20.3994C42.769 20.8171 43.1426 21.2724 43.4716 21.7593" stroke="#0D052C" stroke-width="0.355367" stroke-linecap="round" stroke-linejoin="round"/>
<path d="M37.762 17.8218C39.0491 18.1211 40.2595 18.686 41.3156 19.4802" stroke="#0D052C" stroke-width="0.355367" stroke-linecap="round" stroke-linejoin="round"/>
<path d="M30.2543 34.9979C28.687 33.9395 27.4692 32.4397 26.7551 30.6885" stroke="#0D052C" stroke-width="0.355367" stroke-linecap="round" stroke-linejoin="round"/>
</svg>
