<svg width="123" height="122" viewBox="0 0 123 122" fill="none" xmlns="http://www.w3.org/2000/svg">
<path d="M67.0152 61.9949L71.108 66.8903L65.7873 71.3386L61.6946 66.4431C62.616 65.7813 63.5363 65.0643 64.4352 64.3128C65.3341 63.5613 66.1984 62.7863 67.0152 61.9949Z" fill="white" stroke="#0D052C" stroke-width="0.430756" stroke-linecap="round" stroke-linejoin="round"/>
<path d="M64.8752 72.0564L71.7249 66.3299C72.0643 66.046 72.5696 66.0912 72.8534 66.4306L93.0078 90.5378C93.5277 91.1596 93.445 92.085 92.8232 92.6048L86.9958 97.4767C86.3741 97.9966 85.4486 97.9139 84.9288 97.2921L64.7744 73.185C64.4906 72.8455 64.5357 72.3402 64.8752 72.0564Z" fill="white" stroke="#0D052C" stroke-width="0.430756" stroke-linecap="round" stroke-linejoin="round"/>
<path d="M48.5337 20.7755C61.5834 20.716 72.4079 30.8582 73.197 43.8841C73.9861 56.91 64.465 68.2847 51.5036 69.8009C38.5422 71.3171 26.6529 62.4469 24.4143 49.5906C22.1757 36.7343 30.3673 24.3676 43.0783 21.4136" fill="#A6EF67"/>
<path d="M48.5337 20.7755C61.5834 20.716 72.4079 30.8582 73.197 43.8841C73.9861 56.91 64.465 68.2847 51.5036 69.8009C38.5422 71.3171 26.6529 62.4469 24.4143 49.5906C22.1757 36.7343 30.3673 24.3676 43.0783 21.4136" stroke="#0D052C" stroke-width="0.430756" stroke-linecap="round" stroke-linejoin="round"/>
<circle cx="48.6774" cy="45.4646" r="19.183" transform="rotate(-39.8968 48.6774 45.4646)" fill="white" stroke="#0D052C" stroke-width="0.430756" stroke-linecap="round" stroke-linejoin="round"/>
<path d="M41.5699 32.0024C45.1326 30.1096 49.2917 29.6768 53.1677 30.7956" stroke="#0D052C" stroke-width="0.430756" stroke-linecap="round" stroke-linejoin="round"/>
<path d="M46.2549 46.6814L49.6923 48.0036" stroke="#0D052C" stroke-width="0.430756" stroke-linecap="round" stroke-linejoin="round"/>
<path d="M45.9254 44.2056L51.7619 46.4454" stroke="#0D052C" stroke-width="0.430756" stroke-linecap="round" stroke-linejoin="round"/>
<path d="M48.6752 42.9097L50.599 43.6482" stroke="#0D052C" stroke-width="0.430756" stroke-linecap="round" stroke-linejoin="round"/>
</svg>
