<svg width="30" height="30" viewBox="0 0 30 30" fill="none" xmlns="http://www.w3.org/2000/svg">
<path d="M15 1.66663L13.2647 8.60794C12.9261 9.96242 12.7568 10.6397 12.4041 11.1907C12.0922 11.6782 11.6783 12.0922 11.1908 12.4041C10.6397 12.7567 9.96248 12.926 8.60801 13.2646L1.66669 15L8.60801 16.7353C9.96248 17.0739 10.6397 17.2432 11.1908 17.5958C11.6783 17.9078 12.0922 18.3217 12.4041 18.8092C12.7568 19.3603 12.9261 20.0375 13.2647 21.392L15 28.3333L16.7354 21.392C17.074 20.0375 17.2433 19.3603 17.5959 18.8092C17.9078 18.3217 18.3218 17.9078 18.8092 17.5958C19.3603 17.2432 20.0376 17.0739 21.392 16.7353L28.3334 15L21.392 13.2646C20.0376 12.926 19.3603 12.7567 18.8092 12.4041C18.3218 12.0922 17.9078 11.6782 17.5959 11.1907C17.2433 10.6397 17.074 9.96242 16.7354 8.60795L15 1.66663Z" stroke="#A6EF67" stroke-width="2" stroke-linecap="round" stroke-linejoin="round"/>
</svg>
